<?xml version="1.0" encoding="UTF-8"?>
<svg id="Layer_1" data-name="Layer 1" xmlns="http://www.w3.org/2000/svg" viewBox="0 0 38.55 28.79">
  <defs>
    <style>
      .cls-1 {
        fill: #0b85ff;
      }
    </style>
  </defs>
  <path class="cls-1" d="M35.53,16.92c.95-1.39,1.44-3.11,1.24-4.97-.31-2.82-2.99-5.75-5.78-6.29-1.81-.35-3.55-.02-4.97,.79C24.25,2.63,20.37,0,15.88,0,9.71,0,4.7,5,4.7,11.18c0,1.72,.39,3.35,1.08,4.81-1.52,.14-2.88,.82-3.91,1.84C.48,19.23-.28,21.27,.09,23.47c.49,2.95,3.59,5.32,6.58,5.32h25.45c1.77,0,3.38-.72,4.55-1.88,1.16-1.17,1.88-2.78,1.88-4.55,0-2.3-1.21-4.32-3.02-5.45Zm-12.62,1.71l-2.42-2.42v6.9h-2.43v-6.9l-2.42,2.42-1.6-1.6,5.15-5.15,.08,.08,.08-.08,5.15,5.15-1.6,1.6Z"/>
</svg>